<svg width="372" height="113" viewBox="0 0 372 113" fill="none" xmlns="http://www.w3.org/2000/svg">
<path d="M134.459 110V101.04H138.107C139.063 101.04 139.899 101.232 140.616 101.616C141.341 101.991 141.905 102.516 142.306 103.19C142.707 103.865 142.907 104.641 142.907 105.52C142.907 106.399 142.707 107.175 142.306 107.85C141.905 108.524 141.341 109.053 140.616 109.437C139.899 109.812 139.063 110 138.107 110H134.459ZM135.406 109.181H138.056C138.85 109.181 139.537 109.027 140.117 108.72C140.706 108.404 141.162 107.973 141.486 107.427C141.811 106.873 141.973 106.237 141.973 105.52C141.973 104.795 141.811 104.159 141.486 103.613C141.162 103.067 140.706 102.64 140.117 102.333C139.537 102.017 138.85 101.859 138.056 101.859H135.406V109.181ZM143.476 110L147.572 101.04H148.506L152.602 110H151.604L147.84 101.59H148.224L144.461 110H143.476ZM145.088 107.606L145.37 106.838H150.58L150.861 107.606H145.088ZM155.375 110V101.859H152.226V101.04H159.471V101.859H156.322V110H155.375ZM159.101 110L163.197 101.04H164.131L168.227 110H167.229L163.465 101.59H163.849L160.086 110H159.101ZM160.713 107.606L160.995 106.838H166.205L166.486 107.606H160.713ZM175.53 110.077C174.864 110.077 174.224 109.97 173.61 109.757C173.004 109.535 172.534 109.253 172.202 108.912L172.573 108.182C172.889 108.49 173.311 108.75 173.84 108.963C174.378 109.168 174.941 109.27 175.53 109.27C176.093 109.27 176.549 109.202 176.899 109.066C177.258 108.921 177.518 108.729 177.68 108.49C177.851 108.251 177.936 107.986 177.936 107.696C177.936 107.346 177.834 107.065 177.629 106.851C177.433 106.638 177.172 106.471 176.848 106.352C176.524 106.224 176.165 106.113 175.773 106.019C175.38 105.925 174.988 105.827 174.595 105.725C174.203 105.614 173.84 105.469 173.507 105.29C173.183 105.11 172.918 104.876 172.714 104.586C172.517 104.287 172.419 103.899 172.419 103.421C172.419 102.977 172.534 102.572 172.765 102.205C173.004 101.829 173.366 101.531 173.853 101.309C174.339 101.078 174.962 100.963 175.722 100.963C176.225 100.963 176.724 101.036 177.219 101.181C177.714 101.317 178.141 101.509 178.499 101.757L178.179 102.512C177.795 102.256 177.386 102.068 176.95 101.949C176.524 101.829 176.11 101.77 175.709 101.77C175.171 101.77 174.727 101.842 174.378 101.987C174.028 102.132 173.767 102.329 173.597 102.576C173.435 102.815 173.354 103.088 173.354 103.395C173.354 103.745 173.452 104.027 173.648 104.24C173.853 104.453 174.117 104.62 174.442 104.739C174.774 104.859 175.137 104.965 175.53 105.059C175.922 105.153 176.31 105.255 176.694 105.366C177.087 105.477 177.445 105.622 177.77 105.802C178.102 105.972 178.367 106.203 178.563 106.493C178.768 106.783 178.87 107.163 178.87 107.632C178.87 108.067 178.751 108.473 178.512 108.848C178.273 109.215 177.906 109.514 177.411 109.744C176.925 109.966 176.298 110.077 175.53 110.077ZM184.825 110.077C184.151 110.077 183.528 109.966 182.957 109.744C182.385 109.514 181.89 109.194 181.472 108.784C181.054 108.374 180.725 107.892 180.486 107.338C180.256 106.783 180.141 106.177 180.141 105.52C180.141 104.863 180.256 104.257 180.486 103.702C180.725 103.148 181.054 102.666 181.472 102.256C181.898 101.846 182.398 101.531 182.969 101.309C183.541 101.078 184.164 100.963 184.838 100.963C185.487 100.963 186.097 101.074 186.669 101.296C187.24 101.509 187.722 101.834 188.115 102.269L187.513 102.87C187.146 102.495 186.741 102.226 186.297 102.064C185.854 101.893 185.376 101.808 184.864 101.808C184.326 101.808 183.827 101.902 183.366 102.09C182.905 102.269 182.504 102.529 182.163 102.87C181.822 103.203 181.553 103.596 181.357 104.048C181.169 104.492 181.075 104.982 181.075 105.52C181.075 106.058 181.169 106.553 181.357 107.005C181.553 107.449 181.822 107.841 182.163 108.182C182.504 108.515 182.905 108.775 183.366 108.963C183.827 109.142 184.326 109.232 184.864 109.232C185.376 109.232 185.854 109.147 186.297 108.976C186.741 108.805 187.146 108.532 187.513 108.157L188.115 108.758C187.722 109.194 187.24 109.522 186.669 109.744C186.097 109.966 185.482 110.077 184.825 110.077ZM190.134 110V101.04H191.081V110H190.134ZM194.841 105.046H199.577V105.853H194.841V105.046ZM194.944 109.181H200.333V110H193.997V101.04H200.141V101.859H194.944V109.181ZM202.559 110V101.04H203.34L209.522 108.822H209.113V101.04H210.047V110H209.266L203.097 102.218H203.506V110H202.559ZM214.712 110V101.859H211.564V101.04H218.808V101.859H215.66V110H214.712ZM220.322 110V101.04H221.269V110H220.322ZM226.655 110.077C225.989 110.077 225.349 109.97 224.735 109.757C224.129 109.535 223.659 109.253 223.327 108.912L223.698 108.182C224.014 108.49 224.436 108.75 224.965 108.963C225.503 109.168 226.066 109.27 226.655 109.27C227.218 109.27 227.674 109.202 228.024 109.066C228.383 108.921 228.643 108.729 228.805 108.49C228.976 108.251 229.061 107.986 229.061 107.696C229.061 107.346 228.959 107.065 228.754 106.851C228.558 106.638 228.297 106.471 227.973 106.352C227.649 106.224 227.29 106.113 226.898 106.019C226.505 105.925 226.113 105.827 225.72 105.725C225.328 105.614 224.965 105.469 224.632 105.29C224.308 105.11 224.043 104.876 223.839 104.586C223.642 104.287 223.544 103.899 223.544 103.421C223.544 102.977 223.659 102.572 223.89 102.205C224.129 101.829 224.491 101.531 224.978 101.309C225.464 101.078 226.087 100.963 226.847 100.963C227.35 100.963 227.849 101.036 228.344 101.181C228.839 101.317 229.266 101.509 229.624 101.757L229.304 102.512C228.92 102.256 228.511 102.068 228.075 101.949C227.649 101.829 227.235 101.77 226.834 101.77C226.296 101.77 225.852 101.842 225.503 101.987C225.153 102.132 224.892 102.329 224.722 102.576C224.56 102.815 224.479 103.088 224.479 103.395C224.479 103.745 224.577 104.027 224.773 104.24C224.978 104.453 225.242 104.62 225.567 104.739C225.899 104.859 226.262 104.965 226.655 105.059C227.047 105.153 227.435 105.255 227.819 105.366C228.212 105.477 228.57 105.622 228.895 105.802C229.227 105.972 229.492 106.203 229.688 106.493C229.893 106.783 229.995 107.163 229.995 107.632C229.995 108.067 229.876 108.473 229.637 108.848C229.398 109.215 229.031 109.514 228.536 109.744C228.05 109.966 227.423 110.077 226.655 110.077ZM233.675 110V101.859H230.526V101.04H237.771V101.859H234.622V110H233.675Z" fill="#D9D9D9"/>
<path d="M60.55 29.9C62.75 29.9 64.55 30.2333 65.95 30.9C67.3833 31.5333 68.65 32.2833 69.75 33.15C70.4167 33.65 70.9167 33.7167 71.25 33.35C71.6167 32.95 71.8667 32.0333 72 30.6H73.15C73.0833 31.8333 73.0333 33.3333 73 35.1C72.9667 36.8667 72.95 39.2 72.95 42.1H71.8C71.5667 40.6667 71.35 39.5333 71.15 38.7C70.95 37.8333 70.7 37.1 70.4 36.5C70.1333 35.9 69.7667 35.3 69.3 34.7C68.2667 33.3333 66.9667 32.35 65.4 31.75C63.8333 31.1167 62.1833 30.8 60.45 30.8C58.8167 30.8 57.3333 31.2167 56 32.05C54.7 32.85 53.5667 34.0167 52.6 35.55C51.6667 37.0833 50.9333 38.9333 50.4 41.1C49.9 43.2667 49.65 45.7 49.65 48.4C49.65 51.2 49.9333 53.6833 50.5 55.85C51.0667 57.9833 51.85 59.7833 52.85 61.25C53.8833 62.7167 55.0833 63.8333 56.45 64.6C57.85 65.3333 59.35 65.7 60.95 65.7C62.45 65.7 64.0167 65.4 65.65 64.8C67.2833 64.2 68.5667 63.2333 69.5 61.9C70.2333 60.9333 70.7333 59.8833 71 58.75C71.3 57.6167 71.5667 56.0333 71.8 54H72.95C72.95 57.0333 72.9667 59.4833 73 61.35C73.0333 63.1833 73.0833 64.7333 73.15 66H72C71.8667 64.5667 71.6333 63.6667 71.3 63.3C71 62.9333 70.4833 62.9833 69.75 63.45C68.5167 64.3167 67.2 65.0833 65.8 65.75C64.4333 66.3833 62.6667 66.7 60.5 66.7C57.3333 66.7 54.55 65.9833 52.15 64.55C49.7833 63.1167 47.9333 61.05 46.6 58.35C45.3 55.65 44.65 52.4 44.65 48.6C44.65 44.8667 45.3333 41.6 46.7 38.8C48.0667 36 49.9333 33.8167 52.3 32.25C54.7 30.6833 57.45 29.9 60.55 29.9ZM84.9738 66.35C83.6072 66.35 82.4238 66.1 81.4238 65.6C80.4238 65.0667 79.6572 64.3333 79.1238 63.4C78.6238 62.4667 78.3738 61.3833 78.3738 60.15C78.3738 58.6833 78.7072 57.4833 79.3738 56.55C80.0738 55.6167 80.9572 54.8667 82.0238 54.3C83.0905 53.7333 84.2072 53.2667 85.3738 52.9C86.5738 52.5 87.7072 52.1333 88.7738 51.8C89.8405 51.4333 90.7072 51.0167 91.3738 50.55C92.0738 50.0833 92.4238 49.4667 92.4238 48.7V45.6C92.4238 44.2 92.2072 43.1333 91.7738 42.4C91.3738 41.6667 90.8238 41.1833 90.1238 40.95C89.4238 40.6833 88.6405 40.55 87.7738 40.55C86.9405 40.55 86.0405 40.6667 85.0738 40.9C84.1405 41.1333 83.3905 41.6167 82.8238 42.35C83.4572 42.4833 84.0072 42.8167 84.4738 43.35C84.9405 43.8833 85.1738 44.5667 85.1738 45.4C85.1738 46.2333 84.9072 46.9 84.3738 47.4C83.8405 47.8667 83.1572 48.1 82.3238 48.1C81.3572 48.1 80.6405 47.8 80.1738 47.2C79.7405 46.5667 79.5238 45.8667 79.5238 45.1C79.5238 44.2333 79.7405 43.5333 80.1738 43C80.6072 42.4667 81.1572 41.9667 81.8238 41.5C82.5905 40.9667 83.5738 40.5167 84.7738 40.15C86.0072 39.75 87.3905 39.55 88.9238 39.55C90.2905 39.55 91.4572 39.7167 92.4238 40.05C93.3905 40.35 94.1905 40.8 94.8238 41.4C95.6905 42.2 96.2572 43.1833 96.5238 44.35C96.7905 45.4833 96.9238 46.85 96.9238 48.45V62.35C96.9238 63.1833 97.0405 63.7833 97.2738 64.15C97.5405 64.5167 97.9405 64.7 98.4738 64.7C98.8405 64.7 99.1905 64.6167 99.5238 64.45C99.8572 64.2833 100.257 64.0167 100.724 63.65L101.274 64.5C100.574 65.0333 99.9072 65.4833 99.2738 65.85C98.6405 66.1833 97.7905 66.35 96.7238 66.35C95.7572 66.35 94.9572 66.1833 94.3238 65.85C93.6905 65.5167 93.2072 65.0333 92.8738 64.4C92.5738 63.7333 92.4238 62.9 92.4238 61.9C91.5238 63.4 90.4405 64.5167 89.1738 65.25C87.9405 65.9833 86.5405 66.35 84.9738 66.35ZM86.7738 64.35C87.8738 64.35 88.8905 64.0333 89.8238 63.4C90.7905 62.7667 91.6572 61.8167 92.4238 60.55V50.75C92.0238 51.3167 91.4405 51.8 90.6738 52.2C89.9072 52.5667 89.0738 52.95 88.1738 53.35C87.2738 53.7167 86.4072 54.1667 85.5738 54.7C84.7738 55.2 84.1072 55.8667 83.5738 56.7C83.0405 57.5333 82.7738 58.6167 82.7738 59.95C82.7738 61.2833 83.1238 62.35 83.8238 63.15C84.5572 63.95 85.5405 64.35 86.7738 64.35ZM118.326 39.55C119.226 39.55 120.01 39.7333 120.676 40.1C121.376 40.4667 121.91 40.95 122.276 41.55C122.676 42.1167 122.876 42.7667 122.876 43.5C122.876 44.3333 122.61 45.0667 122.076 45.7C121.576 46.3333 120.893 46.65 120.026 46.65C119.326 46.65 118.71 46.4333 118.176 46C117.643 45.5333 117.376 44.8833 117.376 44.05C117.376 43.4167 117.543 42.8833 117.876 42.45C118.243 41.9833 118.643 41.6167 119.076 41.35C118.843 41.0167 118.493 40.85 118.026 40.85C116.993 40.85 116.043 41.1667 115.176 41.8C114.31 42.4 113.576 43.1833 112.976 44.15C112.376 45.1167 111.91 46.15 111.576 47.25C111.243 48.3167 111.076 49.3167 111.076 50.25V60.85C111.076 62.4833 111.543 63.5833 112.476 64.15C113.443 64.6833 114.743 64.95 116.376 64.95V66C115.61 65.9667 114.526 65.9333 113.126 65.9C111.726 65.8333 110.243 65.8 108.676 65.8C107.543 65.8 106.41 65.8333 105.276 65.9C104.176 65.9333 103.343 65.9667 102.776 66V64.95C104.143 64.95 105.11 64.7 105.676 64.2C106.276 63.7 106.576 62.75 106.576 61.35V45.7C106.576 44.2 106.31 43.1 105.776 42.4C105.243 41.6667 104.243 41.3 102.776 41.3V40.25C103.843 40.35 104.876 40.4 105.876 40.4C106.843 40.4 107.76 40.35 108.626 40.25C109.526 40.1167 110.343 39.9333 111.076 39.7V45.95C111.443 44.9833 111.96 44.0167 112.626 43.05C113.326 42.05 114.16 41.2167 115.126 40.55C116.093 39.8833 117.16 39.55 118.326 39.55ZM132.015 26.8V61.35C132.015 62.75 132.299 63.7 132.865 64.2C133.465 64.7 134.449 64.95 135.815 64.95V66C135.249 65.9667 134.382 65.9333 133.215 65.9C132.082 65.8333 130.932 65.8 129.765 65.8C128.632 65.8 127.482 65.8333 126.315 65.9C125.149 65.9333 124.282 65.9667 123.715 66V64.95C125.082 64.95 126.049 64.7 126.615 64.2C127.215 63.7 127.515 62.75 127.515 61.35V32.8C127.515 31.3 127.249 30.2 126.715 29.5C126.182 28.7667 125.182 28.4 123.715 28.4V27.35C124.782 27.45 125.815 27.5 126.815 27.5C127.782 27.5 128.699 27.45 129.565 27.35C130.465 27.2167 131.282 27.0333 132.015 26.8ZM150.134 39.55C152.267 39.55 154.184 40.0167 155.884 40.95C157.584 41.8833 158.934 43.35 159.934 45.35C160.967 47.35 161.484 49.95 161.484 53.15C161.484 56.35 160.967 58.95 159.934 60.95C158.934 62.9167 157.584 64.3667 155.884 65.3C154.184 66.2333 152.267 66.7 150.134 66.7C148.034 66.7 146.117 66.2333 144.384 65.3C142.684 64.3667 141.317 62.9167 140.284 60.95C139.284 58.95 138.784 56.35 138.784 53.15C138.784 49.95 139.284 47.35 140.284 45.35C141.317 43.35 142.684 41.8833 144.384 40.95C146.117 40.0167 148.034 39.55 150.134 39.55ZM150.134 40.55C148.234 40.55 146.667 41.5333 145.434 43.5C144.234 45.4667 143.634 48.6833 143.634 53.15C143.634 57.6167 144.234 60.8333 145.434 62.8C146.667 64.7333 148.234 65.7 150.134 65.7C152.034 65.7 153.584 64.7333 154.784 62.8C156.017 60.8333 156.634 57.6167 156.634 53.15C156.634 48.6833 156.017 45.4667 154.784 43.5C153.584 41.5333 152.034 40.55 150.134 40.55ZM174.226 39.55C175.56 39.55 176.693 39.7667 177.626 40.2C178.56 40.6333 179.243 41.0333 179.676 41.4C180.776 42.3 181.443 41.7 181.676 39.6H182.826C182.76 40.5333 182.71 41.65 182.676 42.95C182.643 44.2167 182.626 45.9333 182.626 48.1H181.476C181.276 46.8667 180.926 45.6667 180.426 44.5C179.96 43.3333 179.26 42.3833 178.326 41.65C177.393 40.8833 176.176 40.5 174.676 40.5C173.51 40.5 172.526 40.8333 171.726 41.5C170.96 42.1333 170.576 43.0833 170.576 44.35C170.576 45.35 170.876 46.2167 171.476 46.95C172.076 47.65 172.86 48.3167 173.826 48.95C174.793 49.55 175.843 50.2167 176.976 50.95C178.243 51.75 179.393 52.5667 180.426 53.4C181.46 54.2333 182.276 55.15 182.876 56.15C183.51 57.15 183.826 58.3333 183.826 59.7C183.826 61.2333 183.426 62.5167 182.626 63.55C181.826 64.5833 180.776 65.3667 179.476 65.9C178.21 66.4333 176.81 66.7 175.276 66.7C174.543 66.7 173.843 66.6333 173.176 66.5C172.543 66.4 171.926 66.2333 171.326 66C170.993 65.8333 170.643 65.6333 170.276 65.4C169.943 65.1667 169.61 64.9167 169.276 64.65C168.943 64.3833 168.643 64.4 168.376 64.7C168.11 64.9667 167.91 65.5167 167.776 66.35H166.626C166.693 65.2833 166.743 63.9833 166.776 62.45C166.81 60.9167 166.826 58.8833 166.826 56.35H167.976C168.21 58.2167 168.543 59.85 168.976 61.25C169.41 62.65 170.093 63.75 171.026 64.55C171.96 65.3167 173.26 65.7 174.926 65.7C175.593 65.7 176.26 65.55 176.926 65.25C177.626 64.95 178.21 64.45 178.676 63.75C179.143 63.05 179.376 62.1167 179.376 60.95C179.376 59.4833 178.843 58.2833 177.776 57.35C176.71 56.4167 175.36 55.4333 173.726 54.4C172.526 53.6333 171.393 52.8667 170.326 52.1C169.293 51.3333 168.443 50.4667 167.776 49.5C167.143 48.5333 166.826 47.3667 166.826 46C166.826 44.5 167.16 43.2833 167.826 42.35C168.526 41.3833 169.443 40.6833 170.576 40.25C171.71 39.7833 172.926 39.55 174.226 39.55ZM200.741 30.6C201.441 30.6333 202.357 30.6667 203.491 30.7C204.624 30.7333 205.741 30.75 206.841 30.75C208.407 30.75 209.907 30.7333 211.341 30.7C212.774 30.6667 213.791 30.65 214.391 30.65C217.091 30.65 219.324 31.0333 221.091 31.8C222.891 32.5667 224.224 33.6167 225.091 34.95C225.991 36.25 226.441 37.7167 226.441 39.35C226.441 40.35 226.241 41.4167 225.841 42.55C225.441 43.6833 224.741 44.75 223.741 45.75C222.774 46.75 221.441 47.5833 219.741 48.25C218.041 48.8833 215.891 49.2 213.291 49.2H208.491V48.2H212.791C215.157 48.2 216.957 47.8333 218.191 47.1C219.457 46.3333 220.307 45.3333 220.741 44.1C221.207 42.8333 221.441 41.4333 221.441 39.9C221.441 37.2667 220.807 35.2333 219.541 33.8C218.307 32.3333 216.174 31.6 213.141 31.6C211.607 31.6 210.607 31.8833 210.141 32.45C209.674 33.0167 209.441 34.1667 209.441 35.9V60.7C209.441 61.9 209.541 62.8 209.741 63.4C209.941 64 210.324 64.4 210.891 64.6C211.491 64.8 212.357 64.9333 213.491 65V66C212.724 65.9333 211.757 65.9 210.591 65.9C209.457 65.8667 208.307 65.85 207.141 65.85C205.841 65.85 204.624 65.8667 203.491 65.9C202.357 65.9 201.441 65.9333 200.741 66V65C201.874 64.9333 202.724 64.8 203.291 64.6C203.891 64.4 204.291 64 204.491 63.4C204.691 62.8 204.791 61.9 204.791 60.7V35.9C204.791 34.6667 204.691 33.7667 204.491 33.2C204.291 32.6 203.891 32.2 203.291 32C202.724 31.7667 201.874 31.6333 200.741 31.6V30.6ZM208.691 48.35C210.491 48.4167 211.907 48.5 212.941 48.6C213.974 48.6667 214.807 48.7333 215.441 48.8C216.107 48.8667 216.741 48.95 217.341 49.05C219.574 49.4167 221.174 50.1 222.141 51.1C223.141 52.0667 223.874 53.5833 224.341 55.65L225.591 60.75C225.924 62.2167 226.257 63.2833 226.591 63.95C226.957 64.5833 227.507 64.8833 228.241 64.85C228.807 64.8167 229.274 64.6333 229.641 64.3C230.041 63.9667 230.457 63.5167 230.891 62.95L231.641 63.5C230.941 64.5333 230.207 65.3333 229.441 65.9C228.707 66.4333 227.657 66.7 226.291 66.7C225.057 66.7 223.974 66.3333 223.041 65.6C222.107 64.8667 221.407 63.4333 220.941 61.3L219.841 56.3C219.541 54.8667 219.191 53.6333 218.791 52.6C218.424 51.5333 217.891 50.7 217.191 50.1C216.524 49.5 215.524 49.2 214.191 49.2H208.791L208.691 48.35ZM244.663 39.55C247.596 39.55 249.879 40.45 251.513 42.25C253.179 44.0167 254.013 46.7833 254.013 50.55H236.363L236.313 49.6H249.213C249.279 47.9667 249.146 46.4667 248.813 45.1C248.479 43.7 247.946 42.5833 247.213 41.75C246.513 40.9167 245.596 40.5 244.463 40.5C242.929 40.5 241.563 41.2667 240.363 42.8C239.196 44.3333 238.496 46.7667 238.263 50.1L238.412 50.3C238.346 50.8 238.296 51.35 238.263 51.95C238.229 52.55 238.213 53.15 238.213 53.75C238.213 56.0167 238.579 57.9667 239.313 59.6C240.046 61.2333 240.996 62.4833 242.163 63.35C243.363 64.1833 244.596 64.6 245.863 64.6C246.863 64.6 247.813 64.45 248.713 64.15C249.613 63.8167 250.446 63.2833 251.213 62.55C251.979 61.8167 252.646 60.8333 253.213 59.6L254.213 60C253.846 61.1 253.246 62.1667 252.413 63.2C251.579 64.2333 250.529 65.0833 249.263 65.75C247.996 66.3833 246.529 66.7 244.863 66.7C242.463 66.7 240.396 66.15 238.663 65.05C236.963 63.95 235.646 62.4333 234.713 60.5C233.813 58.5333 233.363 56.2833 233.363 53.75C233.363 50.8167 233.829 48.3 234.763 46.2C235.696 44.0667 237.013 42.4333 238.713 41.3C240.413 40.1333 242.396 39.55 244.663 39.55ZM280.567 40.25V41.25C279.934 41.3167 279.351 41.6 278.817 42.1C278.284 42.6 277.784 43.4833 277.317 44.75L269.117 66.25H268.267L259.067 44.1C258.434 42.8 257.801 42.0167 257.167 41.75C256.567 41.45 256.067 41.3 255.667 41.3V40.25C256.401 40.35 257.167 40.4333 257.967 40.5C258.767 40.5333 259.634 40.55 260.567 40.55C261.601 40.55 262.684 40.5167 263.817 40.45C264.984 40.3833 266.067 40.3167 267.067 40.25V41.3C266.234 41.3 265.484 41.3667 264.817 41.5C264.184 41.6 263.784 41.95 263.617 42.55C263.451 43.1167 263.651 44.1 264.217 45.5L270.367 60.75L270.067 60.85L275.767 45.95C276.201 44.85 276.367 43.9833 276.267 43.35C276.201 42.6833 275.867 42.1833 275.267 41.85C274.667 41.5167 273.767 41.3167 272.567 41.25V40.25C273.167 40.2833 273.684 40.3167 274.117 40.35C274.551 40.35 274.967 40.3667 275.367 40.4C275.801 40.4 276.267 40.4 276.767 40.4C277.534 40.4 278.217 40.3833 278.817 40.35C279.451 40.3167 280.034 40.2833 280.567 40.25ZM269.117 66.25L267.417 70.6C267.084 71.4333 266.734 72.1333 266.367 72.7C266.034 73.2667 265.667 73.7333 265.267 74.1C264.734 74.6 264.101 74.9333 263.367 75.1C262.634 75.3 261.967 75.4 261.367 75.4C260.734 75.4 260.151 75.2833 259.617 75.05C259.117 74.8167 258.717 74.4667 258.417 74C258.117 73.5667 257.967 73.0333 257.967 72.4C257.967 71.6 258.201 70.95 258.667 70.45C259.134 69.9833 259.784 69.75 260.617 69.75C261.317 69.75 261.917 69.95 262.417 70.35C262.917 70.75 263.167 71.3333 263.167 72.1C263.167 72.6667 263.034 73.1333 262.767 73.5C262.501 73.8667 262.184 74.15 261.817 74.35C261.884 74.3833 261.934 74.4 261.967 74.4C262.034 74.4 262.084 74.4 262.117 74.4C263.017 74.4 263.817 74.0833 264.517 73.45C265.217 72.85 265.834 71.8667 266.367 70.5L268.167 65.85L269.117 66.25ZM294.223 39.55C297.156 39.55 299.44 40.45 301.073 42.25C302.74 44.0167 303.573 46.7833 303.573 50.55H285.923L285.873 49.6H298.773C298.84 47.9667 298.706 46.4667 298.373 45.1C298.04 43.7 297.506 42.5833 296.773 41.75C296.073 40.9167 295.156 40.5 294.023 40.5C292.49 40.5 291.123 41.2667 289.923 42.8C288.756 44.3333 288.056 46.7667 287.823 50.1L287.973 50.3C287.906 50.8 287.856 51.35 287.823 51.95C287.79 52.55 287.773 53.15 287.773 53.75C287.773 56.0167 288.14 57.9667 288.873 59.6C289.606 61.2333 290.556 62.4833 291.723 63.35C292.923 64.1833 294.156 64.6 295.423 64.6C296.423 64.6 297.373 64.45 298.273 64.15C299.173 63.8167 300.006 63.2833 300.773 62.55C301.54 61.8167 302.206 60.8333 302.773 59.6L303.773 60C303.406 61.1 302.806 62.1667 301.973 63.2C301.14 64.2333 300.09 65.0833 298.823 65.75C297.556 66.3833 296.09 66.7 294.423 66.7C292.023 66.7 289.956 66.15 288.223 65.05C286.523 63.95 285.206 62.4333 284.273 60.5C283.373 58.5333 282.923 56.2833 282.923 53.75C282.923 50.8167 283.39 48.3 284.323 46.2C285.256 44.0667 286.573 42.4333 288.273 41.3C289.973 40.1333 291.956 39.55 294.223 39.55ZM316.316 39.55C317.649 39.55 318.783 39.7667 319.716 40.2C320.649 40.6333 321.333 41.0333 321.766 41.4C322.866 42.3 323.533 41.7 323.766 39.6H324.916C324.849 40.5333 324.799 41.65 324.766 42.95C324.733 44.2167 324.716 45.9333 324.716 48.1H323.566C323.366 46.8667 323.016 45.6667 322.516 44.5C322.049 43.3333 321.349 42.3833 320.416 41.65C319.483 40.8833 318.266 40.5 316.766 40.5C315.599 40.5 314.616 40.8333 313.816 41.5C313.049 42.1333 312.666 43.0833 312.666 44.35C312.666 45.35 312.966 46.2167 313.566 46.95C314.166 47.65 314.949 48.3167 315.916 48.95C316.883 49.55 317.933 50.2167 319.066 50.95C320.333 51.75 321.483 52.5667 322.516 53.4C323.549 54.2333 324.366 55.15 324.966 56.15C325.599 57.15 325.916 58.3333 325.916 59.7C325.916 61.2333 325.516 62.5167 324.716 63.55C323.916 64.5833 322.866 65.3667 321.566 65.9C320.299 66.4333 318.899 66.7 317.366 66.7C316.633 66.7 315.933 66.6333 315.266 66.5C314.633 66.4 314.016 66.2333 313.416 66C313.083 65.8333 312.733 65.6333 312.366 65.4C312.033 65.1667 311.699 64.9167 311.366 64.65C311.033 64.3833 310.733 64.4 310.466 64.7C310.199 64.9667 309.999 65.5167 309.866 66.35H308.716C308.783 65.2833 308.833 63.9833 308.866 62.45C308.899 60.9167 308.916 58.8833 308.916 56.35H310.066C310.299 58.2167 310.633 59.85 311.066 61.25C311.499 62.65 312.183 63.75 313.116 64.55C314.049 65.3167 315.349 65.7 317.016 65.7C317.683 65.7 318.349 65.55 319.016 65.25C319.716 64.95 320.299 64.45 320.766 63.75C321.233 63.05 321.466 62.1167 321.466 60.95C321.466 59.4833 320.933 58.2833 319.866 57.35C318.799 56.4167 317.449 55.4333 315.816 54.4C314.616 53.6333 313.483 52.8667 312.416 52.1C311.383 51.3333 310.533 50.4667 309.866 49.5C309.233 48.5333 308.916 47.3667 308.916 46C308.916 44.5 309.249 43.2833 309.916 42.35C310.616 41.3833 311.533 40.6833 312.666 40.25C313.799 39.7833 315.016 39.55 316.316 39.55Z" fill="#D9D9D9"/>
<line x1="0.5" y1="1" x2="0.5" y2="105" stroke="#D9D9D9"/>
<line x1="371.5" y1="1" x2="371.5" y2="105" stroke="#D9D9D9"/>
<line x1="-5.71712e-10" y1="0.5" x2="371" y2="0.5" stroke="#D9D9D9"/>
<line x1="98" y1="105.5" y2="105.5" stroke="#D9D9D9"/>
<line x1="98" y1="105.5" y2="105.5" stroke="#D9D9D9"/>
<line x1="371" y1="105.5" x2="273" y2="105.5" stroke="#D9D9D9"/>
</svg>
